<svg width="25" height="24" viewBox="0 0 25 24" fill="none" xmlns="http://www.w3.org/2000/svg">
<path d="M12.5001 9.32C13.6901 9.32 14.6601 8.35 14.6601 7.16C14.6601 5.97 13.6901 5 12.5001 5C11.3101 5 10.3401 5.97 10.3401 7.16C10.3401 8.35 11.3101 9.32 12.5001 9.32Z" stroke="white" stroke-width="1.5" stroke-linecap="round" stroke-linejoin="round"/>
<path d="M7.28988 19C8.47988 19 9.44988 18.03 9.44988 16.84C9.44988 15.65 8.47988 14.68 7.28988 14.68C6.09988 14.68 5.12988 15.65 5.12988 16.84C5.12988 18.03 6.08988 19 7.28988 19Z" stroke="white" stroke-width="1.5" stroke-linecap="round" stroke-linejoin="round"/>
<path d="M17.71 19C18.9 19 19.87 18.03 19.87 16.84C19.87 15.65 18.9 14.68 17.71 14.68C16.52 14.68 15.55 15.65 15.55 16.84C15.55 18.03 16.52 19 17.71 19Z" stroke="white" stroke-width="1.5" stroke-linecap="round" stroke-linejoin="round"/>
</svg>
